<?xml version="1.0" encoding="utf-8"?>
<!-- Generator: Adobe Illustrator 16.0.0, SVG Export Plug-In . SVG Version: 6.00 Build 0)  -->
<!DOCTYPE svg PUBLIC "-//W3C//DTD SVG 1.1//EN" "http://www.w3.org/Graphics/SVG/1.1/DTD/svg11.dtd">
<svg version="1.1" id="Layer_1" xmlns="http://www.w3.org/2000/svg" xmlns:xlink="http://www.w3.org/1999/xlink" x="0px" y="0px"
	 width="240px" height="95px" viewBox="0 0 240 95" enable-background="new 0 0 240 95" xml:space="preserve">
<path fill="#FFFFFF" d="M72.274,58.66c0,6.252-5.291,10.96-11.231,10.96c-5.878,0-10.978-4.868-10.978-11.083v-0.118
	c0-6.251,4.949-10.958,10.859-10.958c5.912,0,11.35,4.863,11.35,11.076V58.66z M34.364,59.32c0,6.213-5.441,11.082-11.355,11.082
	c-5.908,0-10.858-4.713-10.858-10.961V59.32c0-6.213,5.101-11.08,10.976-11.08c5.946,0,11.237,4.709,11.237,10.959V59.32z
	 M78.11,43.065c-4.216-4.12-9.282-6.149-15.544-6.149c-4.239,0-9.468,1.933-11.278,4.458v-3.853H37.921v3.981
	c-3.449-3.291-9.094-4.515-13.078-4.515c-3.491,0-8.745,1.034-11.468,3.663V24.947H0.01v33.67c-0.002,0.142-0.008,0.279-0.008,0.429
	v0.118c0,0.158,0.006,0.313,0.008,0.472v20.416h13.365v-2.858c2.262,2.404,7.237,3.43,11.563,3.43c4.982,0,9.958-1.791,12.983-4.342
	V95h13.367V76.771c2.725,2.627,7.741,3.815,11.234,3.815c6.259,0,11.27-2.168,15.529-6.326c4.213-4.108,6.538-9.635,6.538-15.565
	V58.57C84.589,52.646,82.289,47.138,78.11,43.065"/>
<path fill="#010101" d="M235.096,74.428c0,0.222-0.073,0.398-0.228,0.528c-0.147,0.132-0.362,0.203-0.642,0.203h-1.154v-1.481h1.129
	c0.28,0,0.502,0.057,0.656,0.182c0.156,0.123,0.238,0.308,0.238,0.554V74.428z M235.941,75.389c0.205-0.265,0.305-0.604,0.305-1.023
	v-0.011c0-0.495-0.146-0.884-0.445-1.179c-0.346-0.353-0.846-0.529-1.502-0.529h-2.357v5.168h1.131v-1.653h0.879h0.018l1.104,1.653
	h1.326l-1.26-1.846C235.469,75.844,235.735,75.65,235.941,75.389"/>
<path fill="#010101" d="M234.016,79.432c-2.314,0-4.197-1.885-4.197-4.201c0-2.318,1.883-4.197,4.197-4.197
	c2.316,0,4.205,1.879,4.205,4.197C238.221,77.547,236.332,79.432,234.016,79.432 M234.016,69.963c-2.902,0-5.266,2.369-5.266,5.268
	c0,2.908,2.363,5.264,5.266,5.264c2.911,0,5.27-2.355,5.27-5.264C239.285,72.332,236.927,69.963,234.016,69.963"/>
<path fill="#010101" d="M101.015,63.449l4.777-12.028l4.711,12.028H101.015z M100.229,37.521L82.221,80.12h12.327l3.023-7.554h16.32
	l3.083,7.554h12.567l-18.008-42.599H100.229z"/>
<path fill="#010101" d="M218.823,58.783c0,6.111-4.293,11.305-10.765,11.305c-6.403,0-10.814-5.317-10.814-11.422v-0.125
	c0-6.101,4.292-11.295,10.697-11.295c6.467,0,10.882,5.317,10.882,11.42V58.783z M230.786,58.541
	c0-12.144-9.67-21.873-22.728-21.873c-6.813,0-12.738,2.686-16.842,6.985v-6.181l-39.026,0.039l-10.116,26.656l-10.119-26.656
	h-13.168l17.371,42.604h11.661l13.2-32.365h5.74v32.377h11.725V47.75h9.654c-1.869,3.219-2.922,6.942-2.922,10.916v0.117
	c0,12.148,9.67,21.872,22.725,21.872c13.056,0,22.845-9.844,22.845-21.989V58.541z"/>
<path fill="#FFFFFF" d="M80.878,34.873c-1.745-2.801-3.882-5.327-6.323-7.496c-2.442-2.168-5.175-3.981-8.079-5.451
	c-5.817-2.944-12.243-4.547-18.729-5.293c-1.657-0.19-3.318-0.32-4.984-0.405c3.87,4.341,6.806,8.719,8.55,12.57
	c1.964,0.132,3.603,0.249,4.542,0.329C74.98,30.751,82.681,39.226,85.752,50.34h0.692c-0.353-2.168-0.837-4.319-1.483-6.41
	C83.984,40.74,82.627,37.676,80.878,34.873"/>
<path fill="#FFFFFF" d="M31.145,0.654c-2.833-0.24-5.389-0.303-7.693-0.221c1.779,0.815,3.564,1.769,5.327,2.876
	c3.492,2.199,6.516,4.741,8.949,7.415c4.129,0.442,9.222,1.024,11.147,1.391c3.414,0.652,6.789,1.535,10.068,2.709
	c3.279,1.169,6.464,2.631,9.447,4.439c2.988,1.803,5.764,3.965,8.182,6.465c2.42,2.502,4.471,5.336,6.065,8.391
	c1.599,3.052,2.746,6.303,3.499,9.619c0.495,2.18,0.815,4.389,1.005,6.602h0.602C88.381,15.8,58.362,2.967,31.145,0.654"/>
</svg>
